<svg width="247" height="226" viewBox="0 0 247 226" fill="none" xmlns="http://www.w3.org/2000/svg">
<g opacity="0.1">
<path d="M60.2176 170.553C59.3114 169.72 58.3922 168.869 57.5347 167.993C46.4722 156.992 39.0211 142.885 36.1715 127.546H0.0119629C3.16702 152.435 14.5209 175.565 32.2802 193.285C35.1353 196.14 38.1375 198.844 41.2744 201.385C48.7231 207.405 56.9089 212.448 65.6352 216.394C66.4987 216.789 67.3756 217.166 68.2453 217.537C77.7619 221.566 87.7888 224.261 98.043 225.546V189.357C83.9446 186.742 70.8617 180.228 60.2784 170.553H60.2176Z" fill="#0077DB"/>
<path d="M158.989 10.0804C158.126 9.68507 157.256 9.30811 156.381 8.93715C140.283 2.13062 122.828 -0.855979 105.383 0.211264C87.9385 1.27851 70.9778 6.37052 55.8302 15.0886C40.6826 23.8066 27.7593 35.9138 18.0731 50.4615C8.38694 65.0091 2.20121 81.602 0 98.9401H36.1908C38.3021 87.7954 42.8318 77.2496 49.4609 68.0456C56.09 58.8415 64.6568 51.2032 74.5581 45.6693C84.4594 40.1353 95.454 36.8404 106.767 36.0164C118.08 35.1924 129.436 36.8596 140.034 40.9004L158.989 10.0804Z" fill="#0077DB"/>
<path d="M207.628 107.898L188.526 126.993C188.526 127.175 188.466 127.358 188.429 127.541C186.408 138.42 182.05 148.731 175.658 157.764C173.078 161.412 170.194 164.834 167.035 167.993C156.035 179.054 141.931 186.508 126.595 189.363V225.553C146.253 223.037 164.908 215.412 180.7 203.437C196.492 191.463 208.87 175.558 216.598 157.308C218.133 153.679 219.478 149.972 220.629 146.204C222.487 140.109 223.822 133.868 224.619 127.546C224.716 126.736 224.805 125.941 224.886 125.163L207.628 107.898Z" fill="#FF683D"/>
<path d="M207.623 47.3828L179.363 75.6183L168.739 64.9942L207.617 26.1106L246.499 64.9942L235.882 75.6183L207.623 47.3828Z" fill="#FF683D"/>
<path d="M207.623 89.2769L179.363 117.537L168.739 106.913L207.617 68.0289L246.499 106.913L235.876 117.537L207.623 89.2769Z" fill="#FF683D"/>
</g>
</svg>
