<svg xmlns="http://www.w3.org/2000/svg" width="1474" height="829" viewBox="0 0 1474 829" fill="none"><g opacity="0.6" clip-path="url(#clip0_2317_92)"><mask id="mask0_2317_92" style="mask-type:luminance" maskUnits="userSpaceOnUse" x="0" y="0" width="1474" height="829"><path d="M1474 0H0V829H1474V0Z" fill="white"></path></mask><g mask="url(#mask0_2317_92)"><path d="M1474 0H0V829H1474V0Z" fill="#191A2A"></path><path d="M207.281 149.312C153.747 149.312 92.6132 170.58 92.6132 207.25C92.6132 251.362 157.147 310.875 207.281 310.875C246.95 310.875 272.211 254.448 272.211 207.25C272.211 173.666 243.542 149.312 207.281 149.312Z" stroke="white" stroke-opacity="0.15" stroke-width="2"></path><path d="M359.896 -5.28693e-05C396.184 10.7493 377.722 47.953 414.562 61.4104C508.696 95.7863 534.887 51.6098 621.844 95.6573C678.832 124.525 651.222 164.446 702.453 207.25C754.863 251.049 776.153 268.863 829.125 268.863C855.104 268.863 850.489 240.161 860.355 207.25C890.793 105.734 854.524 64.9935 909.734 -5.28693e-05C942.549 -38.6315 973.07 -5.28693e-05 1036.41 -5.28693e-05C1140.05 -5.28693e-05 1140.05 -5.28693e-05 1243.69 -5.28693e-05C1347.33 -5.28693e-05 1347.33 -5.28693e-05 1450.97 -5.28693e-05C1549.51 -5.28693e-05 1620.18 -48.7637 1648.05 -5.28693e-05C1679.4 54.8613 1566.39 109.106 1569.41 207.25C1571.5 274.906 1629.45 264.423 1658.25 331.6C1673.87 368.048 1658.25 373.05 1658.25 414.5C1658.25 518.125 1658.25 518.125 1658.25 621.75C1658.25 725.375 1710.07 777.187 1658.25 829C1606.43 880.813 1554.61 829 1450.97 829C1347.33 829 1347.33 829 1243.69 829C1140.05 829 1140.05 829 1036.41 829C932.766 829 932.766 829 829.125 829C725.484 829 725.484 829 621.844 829C518.203 829 518.203 829 414.562 829C310.922 829 310.922 829 207.281 829C103.641 829 84.451 848.187 -3.57628e-07 829C-19.1896 824.634 -6.35663 804.323 -3.57628e-07 781.894C23.0128 700.698 58.7297 693.624 58.7297 621.75C58.7297 590.064 9.37832 607.869 -3.57628e-07 574.773C-19.9911 504.244 -3.57628e-07 494.637 -3.57628e-07 414.5C-3.57628e-07 310.875 -3.57628e-07 310.875 -3.57628e-07 207.25C-3.57628e-07 103.625 -51.8203 51.8125 -3.57628e-07 -5.28693e-05C51.8203 -51.8126 103.641 -5.28693e-05 207.281 -5.28693e-05C283.588 -5.28693e-05 292.543 -19.9513 359.896 -5.28693e-05Z" stroke="white" stroke-opacity="0.15" stroke-width="2"></path><path d="M1036.41 383.274C1007.11 383.274 974.784 398.04 974.784 414.5C974.784 431.458 1007.41 450.119 1036.41 450.119C1058.22 450.119 1076.41 431.66 1076.41 414.5C1076.41 398.242 1057.93 383.274 1036.41 383.274Z" stroke="white" stroke-opacity="0.15" stroke-width="2"></path><path d="M414.562 422.468C368.039 422.468 338.357 533.775 338.357 621.75C338.357 660.123 373.972 675.165 414.562 675.165C470.961 675.165 532.335 667.032 532.335 621.75C532.335 540.683 465.029 422.468 414.562 422.468Z" stroke="white" stroke-opacity="0.15" stroke-width="2"></path><path d="M1450.97 543.142C1427.73 543.142 1403.47 584.242 1403.47 621.75C1403.47 652.045 1427.64 678.748 1450.97 678.748C1473.74 678.748 1495.68 651.907 1495.68 621.75C1495.68 584.104 1473.84 543.142 1450.97 543.142Z" stroke="white" stroke-opacity="0.15" stroke-width="2"></path><path d="M207.281 93.5941C114.428 135.947 62.7463 166.5 -2.28526e-05 138.167C-40.8943 119.698 -41.4563 27.6333 -2.28526e-05 -1.90735e-05C62.1844 -41.45 103.641 -1.90735e-05 207.281 -1.90735e-05C255.122 -1.90735e-05 302.953 -19.5092 302.953 -1.90735e-05C302.953 27.2925 265.9 66.8634 207.281 93.5941Z" stroke="white" stroke-opacity="0.15" stroke-width="2"></path><path d="M334.644 207.25C334.644 162.714 369.569 125.372 414.562 125.372C475.862 125.372 483.896 162.244 547.222 207.25C587.536 235.906 581.557 243.883 621.844 272.695C722.509 344.707 725.982 340.194 829.125 408.9C832.423 411.092 831.318 412.492 834.726 414.5C934.958 473.58 941.517 531.076 1036.41 531.076C1107.81 531.076 1167.33 470.669 1167.33 414.5C1167.33 361.278 1098.68 366.989 1036.41 312.293C980.698 263.364 931.347 264.396 931.347 207.25C931.347 136.693 963.572 84.2448 1036.41 56.8878C1119.74 25.5884 1151.74 107.825 1243.69 89.9372C1297.94 79.3813 1276.64 22.6408 1328.82 -6.5625e-05C1380.28 -22.3278 1389.89 -6.5625e-05 1450.97 -6.5625e-05C1507.04 -6.5625e-05 1563.1 -32.9298 1563.1 -6.5625e-05C1563.1 67.6463 1508.13 101.442 1450.97 201.152C1448.72 205.067 1445.34 202.884 1444.28 207.25C1419.43 309.558 1434.7 315.453 1399.15 414.5C1360.31 522.703 1282.86 525.604 1295.51 621.75C1308.76 722.492 1374.62 808.275 1450.97 808.275C1525.51 808.275 1529.74 718.715 1597.28 621.75C1633.38 569.937 1642.01 510.719 1658.25 510.719C1672.49 510.719 1658.25 566.235 1658.25 621.75C1658.25 725.375 1710.07 777.187 1658.25 829C1606.43 880.812 1554.61 829 1450.97 829C1347.33 829 1347.33 829 1243.69 829C1195.85 829 1189.62 846.833 1148.02 829C1085.98 802.417 1087.82 740.177 1036.41 740.177C994.489 740.177 1009.85 808.22 961.352 829C906.206 852.626 895.234 829 829.125 829C725.484 829 725.484 829 621.844 829C518.203 829 518.203 829 414.562 829C310.922 829 310.922 829 207.281 829C136.023 829 76.9152 869.483 64.7731 829C45.823 765.858 162.739 709.799 145.097 621.75C130.348 548.144 48.6604 575.197 2.30649e-06 505.69C-23.888 471.572 2.30649e-06 460.095 2.30649e-06 414.5C2.30649e-06 322.076 -41.6589 230.453 2.30649e-06 229.651C61.9817 228.463 102.987 321.081 207.281 410.512C210.773 413.505 214.43 410.115 215.572 414.5C241.865 515.739 209.115 538.049 262.151 621.75C308.61 695.089 332.829 723.247 414.562 728.58C512.676 734.982 516.932 683.059 621.844 645.211C664.986 629.644 710.68 634.443 710.68 621.75C710.68 608.9 654.032 624.836 621.844 594.117C545.454 521.211 560.894 501.748 493.523 414.5C457.253 367.532 450.639 372.737 414.562 325.677C371.199 269.112 334.644 262.867 334.644 207.25Z" stroke="white" stroke-opacity="0.15" stroke-width="2"></path><path d="M207.281 37.8852C159.542 37.8852 103.641 9.76372 103.641 -6.27509e-05C103.641 -9.17433 155.461 -6.27509e-05 207.281 -6.27509e-05C226.637 -6.27509e-05 246.001 -7.89398 246.001 -6.27509e-05C246.001 11.0441 230.718 37.8852 207.281 37.8852Z" stroke="white" stroke-opacity="0.15" stroke-width="2"></path><path d="M397.077 207.25C397.077 197.505 404.724 189.344 414.562 189.344C427.976 189.344 443.582 197.016 443.582 207.25C443.582 218.93 427.451 233.161 414.562 233.161C404.198 233.161 397.077 219.418 397.077 207.25Z" stroke="white" stroke-opacity="0.15" stroke-width="2"></path><path d="M1002.33 207.25C1002.33 184.37 1009.7 160.651 1036.41 158.486C1130.37 150.869 1142.12 167.117 1243.69 187.695C1262.48 191.499 1277.12 190.808 1277.12 207.25C1277.12 258.15 1285.83 316.42 1243.69 322.389C1165.47 333.461 1135.61 288.648 1036.41 241.322C1014.92 231.079 1002.33 225.783 1002.33 207.25Z" stroke="white" stroke-opacity="0.15" stroke-width="2"></path><path d="M1450.97 48.7635C1436.62 48.7635 1421.36 16.0549 1421.36 -0.000107868C1421.36 -8.32695 1436.16 -0.000107868 1450.97 -0.000107868C1464.57 -0.000107868 1478.15 -7.98614 1478.15 -0.000107868C1478.15 16.3957 1465.02 48.7635 1450.97 48.7635Z" stroke="white" stroke-opacity="0.15" stroke-width="2"></path><path d="M-1.72003e-05 369.688C15.6612 369.688 51.8203 396.142 51.8203 414.5C51.8203 429.597 18.6092 436.607 -1.72003e-05 436.607C-7.30553 436.607 -1.72003e-05 425.553 -1.72003e-05 414.5C-1.72003e-05 392.089 -10.2443 369.688 -1.72003e-05 369.688Z" stroke="white" stroke-opacity="0.15" stroke-width="2"></path><path d="M575.781 414.5C575.781 387.723 595.653 363.599 621.844 363.599C656.861 363.599 698.206 386.885 698.206 414.5C698.206 444.574 655.985 478.978 621.844 478.978C594.777 478.978 575.781 445.412 575.781 414.5Z" stroke="white" stroke-opacity="0.15" stroke-width="2"></path><path d="M1005.31 621.75C1005.31 616.232 1020.72 612.032 1036.41 612.032C1055.7 612.032 1075.27 616.205 1075.27 621.75C1075.27 627.406 1055.61 634.443 1036.41 634.443C1020.63 634.443 1005.31 627.442 1005.31 621.75Z" stroke="white" stroke-opacity="0.15" stroke-width="2"></path><path d="M145.742 829C145.742 773.982 151.73 687.259 207.281 677.551C286.14 663.762 305.965 764.863 414.562 781.996C513.247 797.572 517.3 752.741 621.844 742.968C724.582 733.361 743.605 713.833 829.125 743.245C868.683 756.849 872.009 799.368 872.009 829C872.009 842.246 850.572 829 829.125 829C725.484 829 725.484 829 621.844 829C518.203 829 518.203 829 414.562 829C310.922 829 310.922 829 207.281 829C176.511 829 145.742 849.707 145.742 829Z" stroke="white" stroke-opacity="0.15" stroke-width="2"></path></g></g><defs><clipPath id="clip0_2317_92"><rect width="1474" height="829" fill="white"></rect></clipPath></defs></svg>