<svg width="114" height="30" viewBox="0 0 114 30" fill="none" xmlns="http://www.w3.org/2000/svg">
<path d="M31.3807 29.2327V15.4607C31.444 14.1468 31.6484 12.8436 31.9906 11.5734C32.8952 8.79094 35.0843 4.87918 40.2576 4.68387C40.2576 4.68387 45.9383 4.50193 45.9903 11.5694V29.2327H50.615V11.1568C50.615 11.1568 50.8972 4.62006 46.1762 1.57932C44.9278 0.800752 43.5247 0.303315 42.0644 0.121577C41.5251 0.0330768 40.9789 -0.00725959 40.4324 0.00106944C40.3434 0.00106944 40.2544 0.00106944 40.1645 0.00106944V0.00895266C39.9124 0.0184033 39.6515 0.0373086 39.3813 0.0672356C34.7604 0.575207 31.8952 4.77601 31.383 5.74942V0.761055H26.7583V29.2303L31.3807 29.2327Z" fill="white"/>
<path d="M58.105 0.763184H53.4802V29.2324H58.105V0.763184Z" fill="white"/>
<path d="M58.1096 0.763184H53.4753V29.2324H58.1096V0.763184Z" fill="white"/>
<path d="M78.8658 0.763305L71.858 18.2186L64.8495 0.763305H60.205L69.5373 24.0008L71.8595 29.7846L74.1818 24.0008L83.5126 0.761719L78.8658 0.763305Z" fill="white"/>
<path d="M89.4462 22.2659C89.3288 22.158 89.2097 22.0477 89.0986 21.9343C87.6651 20.5097 86.6996 18.6827 86.3304 16.6963H81.6449C82.0537 19.9195 83.5249 22.9149 85.8262 25.2097C86.1961 25.5794 86.5851 25.9296 86.9916 26.2588C87.9568 27.0383 89.0175 27.6914 90.1482 28.2024C90.2601 28.2536 90.3738 28.3025 90.4865 28.3505C91.7196 28.8723 93.0189 29.2213 94.3476 29.3877V24.701C92.5208 24.3624 90.8255 23.5188 89.4541 22.2659H89.4462Z" fill="white"/>
<path d="M102.245 1.48416C102.133 1.43297 102.02 1.38415 101.907 1.33611C99.821 0.454636 97.5591 0.067858 95.2987 0.206071C93.0382 0.344283 90.8405 1.00372 88.8777 2.13275C86.9149 3.26177 85.2403 4.82971 83.9852 6.71369C82.7301 8.59767 81.9285 10.7465 81.6433 12.9919H86.3328C86.6064 11.5486 87.1934 10.1829 88.0524 8.99091C88.9114 7.79894 90.0214 6.80975 91.3044 6.09308C92.5874 5.37641 94.0121 4.9497 95.478 4.84299C96.9439 4.73628 98.4154 4.95219 99.7887 5.4755L102.245 1.48416Z" fill="white"/>
<path d="M108.547 14.1519L106.072 16.6248C106.072 16.6484 106.064 16.6721 106.06 16.6957C105.798 18.1046 105.233 19.44 104.405 20.6098C104.07 21.0822 103.697 21.5253 103.287 21.9345C101.862 23.367 100.034 24.3322 98.0472 24.702V29.3887C100.595 29.0629 103.012 28.0754 105.058 26.5247C107.104 24.9739 108.708 22.9141 109.71 20.5507C109.909 20.0807 110.083 19.6007 110.232 19.1127C110.473 18.3234 110.646 17.5151 110.749 16.6965C110.762 16.5914 110.773 16.4886 110.784 16.3878L108.547 14.1519Z" fill="#FF683D"/>
<path d="M108.547 6.31491L104.885 9.97152L103.508 8.59565L108.546 3.56006L113.584 8.59565L112.209 9.97152L108.547 6.31491Z" fill="#FF683D"/>
<path d="M108.547 11.74L104.885 15.3997L103.508 14.0239L108.546 8.98828L113.584 14.0239L112.208 15.3997L108.547 11.74Z" fill="#FF683D"/>
<path d="M19.2375 0.763184V14.5343C19.1742 15.8482 18.9698 17.1515 18.6277 18.4217C17.723 21.2041 15.5347 25.1159 10.3607 25.3112C10.3607 25.3112 4.67924 25.4931 4.62802 18.4256V0.763184H0.003217V18.843C0.003217 18.843 -0.278921 25.3797 4.44121 28.4204C5.6896 29.1991 7.09275 29.6965 8.55303 29.8782C9.09235 29.9667 9.63853 30.007 10.185 29.9987C10.2738 29.9987 10.3631 29.9987 10.4529 29.9987V29.9908C10.7051 29.9814 10.9659 29.9625 11.2362 29.9325C15.857 29.4246 18.7222 25.2238 19.2344 24.2504V29.2316H23.8591V0.763184H19.2375Z" fill="white"/>
</svg>
