<svg version="1.2" xmlns="http://www.w3.org/2000/svg" viewBox="0 0 1543 466" width="1543" height="466"><style>.a{fill:#009}</style><path fill-rule="evenodd" class="a" d="m1440.6 179.3c-9.9 0-17.8-7.9-17.8-17.8 0-9.8 7.9-17.7 17.8-17.7 9.8 0 17.8 7.9 17.8 17.7 0 9.9-8 17.8-17.8 17.8zm-59.3-59.3c-9.8 0-17.7-7.9-17.7-17.8 0-9.8 7.9-17.7 17.7-17.7 9.9 0 17.8 7.9 17.8 17.7 0 9.9-7.9 17.8-17.8 17.8z"/><path fill-rule="evenodd" class="a" d="m1440.6 120c-9.9 0-17.8-7.9-17.8-17.8 0-9.8 7.9-17.7 17.8-17.7 9.8 0 17.8 7.9 17.8 17.7 0 9.9-8 17.8-17.8 17.8zm-118.5 0c-9.9 0-17.8-7.9-17.8-17.8 0-9.8 7.9-17.7 17.8-17.7 9.8 0 17.7 7.9 17.7 17.7 0 9.9-7.9 17.8-17.7 17.8zm173-72.3c6.9 7 6.9 18.2 0 25.2-7 7-18.2 7-25.2 0-6.9-7-6.9-18.2 0-25.2 7-6.9 18.2-6.9 25.2 0zm41.9-41.8c6.9 6.9 6.9 18.2 0 25.1-7 7-18.2 7-25.2 0-6.9-6.9-6.9-18.2 0-25.1 7-7 18.2-7 25.2 0zm-274.2 114.1c-9.9 0-17.8-7.9-17.8-17.8 0-9.8 7.9-17.7 17.8-17.7 9.8 0 17.7 7.9 17.7 17.7 0 9.9-7.9 17.8-17.7 17.8zm-59.3 0c-9.8 0-17.8-7.9-17.8-17.8 0-9.8 8-17.7 17.8-17.7 9.8 0 17.8 7.9 17.8 17.7 0 9.9-8 17.8-17.8 17.8zm237.1 118.6c-9.9 0-17.8-7.9-17.8-17.8 0-9.8 7.9-17.7 17.8-17.7 9.8 0 17.8 7.9 17.8 17.7 0 9.9-8 17.8-17.8 17.8zm-226.9 167.7c-9.9 0-17.8-8-17.8-17.8 0-9.8 7.9-17.8 17.8-17.8 9.8 0 17.7 8 17.7 17.8 0 9.8-7.9 17.8-17.7 17.8zm-59.3-59.3c-9.8 0-17.8-8-17.8-17.8 0-9.8 8-17.8 17.8-17.8 9.9 0 17.8 8 17.8 17.8 0 9.8-7.9 17.8-17.8 17.8z"/><path fill-rule="evenodd" class="a" d="m1231.4 329.2c0-9.8-7.9-17.8-17.7-17.8-9.9 0-17.8 8-17.8 17.8 0 9.8 7.9 17.8 17.8 17.8 9.8 0 17.7-8 17.7-17.8zm-118.5 0c0-9.8-7.9-17.8-17.8-17.8-9.8 0-17.7 8-17.7 17.8 0 9.8 7.9 17.8 17.7 17.8 9.9 0 17.8-8 17.8-17.8zm118.5 118.6c0-9.8-7.9-17.8-17.7-17.8-9.9 0-17.8 8-17.8 17.8 0 9.8 7.9 17.8 17.8 17.8 9.8 0 17.7-8 17.7-17.8zm227-167.7c0-9.8-8-17.8-17.8-17.8-9.9 0-17.8 8-17.8 17.8 0 9.8 7.9 17.8 17.8 17.8 9.8 0 17.8-8 17.8-17.8z"/><path fill-rule="evenodd" class="a" d="m1458.4 339.4c0-9.8-8-17.8-17.8-17.8-9.9 0-17.8 8-17.8 17.8 0 9.8 7.9 17.8 17.8 17.8 9.8 0 17.8-8 17.8-17.8zm-143.1-94c0-9.9-8-17.8-17.8-17.8-9.8 0-17.8 7.9-17.8 17.8 0 9.8 8 17.7 17.8 17.7 9.8 0 17.8-7.9 17.8-17.7zm11.6-54.5c-7 6.9-7 18.2 0 25.1 6.9 7 18.2 7 25.1 0 7-6.9 7-18.2 0-25.1-6.9-7-18.2-7-25.1 0zm41.9-42c-7 7-7 18.2 0 25.2 6.9 7 18.1 7 25.1 0 6.9-7 6.9-18.2 0-25.2-7-6.9-18.2-6.9-25.1 0zm-125.8 125.8c-7 7-7 18.2 0 25.2 7 6.9 18.2 6.9 25.1 0 7-7 7-18.2 0-25.2-6.9-6.9-18.1-6.9-25.1 0zm-1242.8 71.6h38.3v-260.3h-38.3zm213.8 0.1v-104.4c0-23-7.3-42-22-56.6-14.6-14.7-33-22-55.1-22-22.3 0-40.8 7.3-55.2 22-14.4 14.6-21.5 33.6-21.5 56.6v104.4h36v-104.4c0-12.8 4-23.2 12-31.4 8.2-8.4 17.3-12.6 28.7-12.6q17.2 0 28.7 12.6c8 8.1 12 18.6 12 31.4v104.3c-0.1 0.1 36.4 0.1 36.4 0.1zm205.1-94.9v-165.4h-36.5v159.6c0 23-5.3 40.2-15.7 52q-15.2 17.7-38.6 17.7c-16.6 0-30.2-5.5-40.8-16.3-10.4-11.1-15.6-25-15.6-42.8 0-17.7 5.1-31.8 15.2-42.4q15.2-15.9 40.5-15.9c6.6 0 13.8 1.5 21.7 4.6 8.3 3 15.4 6.4 21.3 10.5l3.2 2.1v-38.9l-1.1-0.6q-22.6-12.3-50.6-12.3c-23.7 0-44.1 8.6-61.1 25.9-16.9 17.1-25.3 38.2-25.3 63 0 27.4 8.1 50.3 24.5 68.7 17.3 19.4 40.1 29 68.1 29 26.5 0 48.3-9.1 65.1-27.1 17.2-18.4 25.7-42.2 25.7-71.4zm24.9 94.8h36.4v-179.2h-36.4zm39.7-217.1c0-5.6-2-10.6-6-14.6-3.9-4.4-9.1-6.5-15.5-6.5-6.6 0-11.9 2-15.9 6.1-3.8 4.1-5.7 9.2-5.7 15 0 5.9 2 11.1 5.7 15.4 4.2 4.2 9.6 6.2 15.9 6.2 6.7 0 12.2-2 15.8-6.2 3.8-4.1 5.7-9.3 5.7-15.4zm497.6 127.4c0-26.7-9.3-49-27.9-66.6-18.3-17.8-40.2-26.7-65.5-26.7-25.5 0-47.5 8.9-65.8 26.7-18.1 17.6-27.1 39.6-27.1 66.6 0 27.1 9.1 49.5 27.5 67 18.3 17.6 39.9 26.3 65.4 26.3 25.6 0 47.6-8.7 65.9-26.3 18.3-17.5 27.5-40.2 27.5-67zm-37.9 0c0 17.5-5.3 31.6-15.7 42.5-10.4 10.8-23.6 16.3-39.8 16.3-16.1 0-29.3-5.5-39.7-16.3-10.4-10.9-15.6-24.7-15.6-42.5 0-17.7 5.1-31.8 15.2-42.4 10.4-10.8 24-16.3 40.1-16.3 16.2 0 29.4 5.5 39.8 16.3 10.4 10.9 15.7 25 15.7 42.4zm-170.1-34.6v-23.8h-129.5v36.1h89.4q-0.8 35.6-28 58.3c-17.5 14.6-38.8 21.9-64.2 21.9-27.4 0-50.2-9.5-68.4-28.8-18.3-19.2-27.4-42.3-27.4-69.3 0-27.2 9.1-50.4 27.4-69.6 18.2-19.2 40.9-28.8 68.4-28.8q23.8 0 43.6 10.4c9 4.8 21.5 14 38 27.7l1.4 1.3 25.9-27.9-1.4-1.3c-16.8-16.9-33.4-28.8-49.9-35.8q-24.8-10.8-57.6-10.8c-36.8 0-68.7 13.2-95.6 39.5q-40 39.3-40 95.4c0 37.4 13.4 69.2 40 95.3q40.3 38.9 95.6 38.9 51.6 0 89.7-32.5c28.4-24.3 42.6-56.4 42.6-96.2z"/></svg>