<svg width="200" height="53" viewBox="0 0 200 53" fill="none" xmlns="http://www.w3.org/2000/svg">
<path d="M55.2554 51.4794V27.2297C55.3668 24.9162 55.7268 22.6214 56.3292 20.3848C57.9221 15.4855 61.7767 8.59764 70.8858 8.25374C70.8858 8.25374 80.8885 7.93338 80.98 20.3779V51.4794H89.1233V19.6512C89.1233 19.6512 89.6201 8.14139 81.3074 2.78723C79.1092 1.41632 76.6386 0.540427 74.0673 0.220421C73.1177 0.0645895 72.156 -0.00643508 71.1937 0.00823074C71.0369 0.00823074 70.8802 0.00823074 70.722 0.00823074V0.0221116C70.278 0.0387523 69.8187 0.0720409 69.3428 0.124737C61.2064 1.01918 56.1613 8.41598 55.2594 10.13V1.34642H47.1162V51.4753L55.2554 51.4794Z" fill="white"/>
<path d="M102.312 1.35059H94.1685V51.4794H102.312V1.35059Z" fill="white"/>
<path d="M102.16 1H94V51.1288H102.16V1Z" fill="white"/>
<path d="M138.867 1.35069L126.528 32.0861L114.187 1.35069H106.009L122.442 42.2675L126.531 52.4516L130.62 42.2675L147.05 1.3479L138.867 1.35069Z" fill="white"/>
<path d="M157.497 39.2125C157.291 39.0225 157.081 38.8283 156.885 38.6286C154.361 36.1202 152.661 32.9032 152.011 29.4055H143.761C144.481 35.081 147.071 40.3552 151.123 44.396C151.775 45.047 152.46 45.6636 153.175 46.2432C154.875 47.6158 156.742 48.7659 158.733 49.6656C158.931 49.7557 159.131 49.8418 159.329 49.9264C161.5 50.8451 163.788 51.4596 166.128 51.7526V43.5002C162.911 42.904 159.926 41.4186 157.511 39.2125H157.497Z" fill="white"/>
<path d="M180.034 2.61945C179.837 2.52931 179.638 2.44335 179.439 2.35876C175.766 0.806651 171.783 0.12561 167.803 0.368976C163.823 0.612341 159.953 1.77349 156.497 3.76148C153.041 5.74948 150.092 8.51031 147.882 11.8276C145.672 15.145 144.261 18.9287 143.758 22.8823H152.016C152.497 20.341 153.531 17.9362 155.043 15.8374C156.556 13.7386 158.511 11.9968 160.77 10.7349C163.029 9.47294 165.537 8.72159 168.119 8.53369C170.7 8.3458 173.291 8.72598 175.709 9.64742L180.034 2.61945Z" fill="white"/>
<path d="M191.131 24.9249L186.773 29.2793C186.773 29.3209 186.759 29.3625 186.751 29.4041C186.29 31.885 185.295 34.2363 183.837 36.2961C183.248 37.1279 182.59 37.9082 181.869 38.6286C179.36 41.151 176.142 42.8506 172.643 43.5016V51.754C177.128 51.1804 181.384 49.4416 184.987 46.7111C188.59 43.9805 191.415 40.3536 193.178 36.1921C193.528 35.3645 193.835 34.5193 194.098 33.6599C194.522 32.2702 194.826 30.8469 195.008 29.4055C195.03 29.2206 195.05 29.0394 195.069 28.8619L191.131 24.9249Z" fill="#FF683D"/>
<path d="M191.13 11.1257L184.682 17.5642L182.258 15.1416L191.128 6.2749L200 15.1416L197.577 17.5642L191.13 11.1257Z" fill="#FF683D"/>
<path d="M191.13 20.6788L184.682 27.123L182.258 24.7003L191.128 15.8336L200 24.7003L197.576 27.123L191.13 20.6788Z" fill="#FF683D"/>
<path d="M33.8736 1.35059V25.5989C33.7621 27.9124 33.4021 30.2072 32.7997 32.4438C31.2069 37.3431 27.3536 44.231 18.2431 44.5749C18.2431 44.5749 8.23924 44.8953 8.14905 32.4508V1.35059H0.00566451V33.1857C0.00566451 33.1857 -0.491126 44.6955 7.82012 50.0497C10.0183 51.4207 12.489 52.2967 15.0602 52.6166C16.0099 52.7724 16.9716 52.8434 17.9338 52.8287C18.0902 52.8287 18.2474 52.8287 18.4056 52.8287V52.8149C18.8496 52.7982 19.3089 52.7649 19.7848 52.7122C27.9212 51.8178 32.9663 44.421 33.8681 42.707V51.478H42.0114V1.35059H33.8736Z" fill="white"/>
</svg>
