<svg width="106" height="28" viewBox="0 0 106 28" fill="none" xmlns="http://www.w3.org/2000/svg">
<path d="M29.2853 27.2842V14.4318C29.3444 13.2056 29.5352 11.9894 29.8544 10.804C30.6987 8.20737 32.7416 4.55681 37.5694 4.37453C37.5694 4.37453 42.8709 4.20474 42.9194 10.8003V27.2842H47.2353V10.4152C47.2353 10.4152 47.4986 4.31499 43.0929 1.47729C41.9279 0.750702 40.6184 0.28648 39.2557 0.116877C38.7523 0.0342861 38.2426 -0.00335688 37.7326 0.004416C37.6495 0.004416 37.5665 0.004416 37.4826 0.004416V0.0117728C37.2473 0.0205924 37.0039 0.0382354 36.7516 0.0661641C32.4393 0.540217 29.7655 4.46052 29.2875 5.36894V0.713656H24.9716V27.282L29.2853 27.2842Z" fill="#0077DB"/>
<path d="M54.2252 0.71582H49.9092V27.2841H54.2252V0.71582Z" fill="#0077DB"/>
<path d="M54.2295 0.71582H49.9047V27.2841H54.2295V0.71582Z" fill="#0077DB"/>
<path d="M73.5997 0.715836L67.0599 17.0056L60.5193 0.715836H56.1849L64.8941 22.4017L67.0613 27.7993L69.2285 22.4017L77.9363 0.714355L73.5997 0.715836Z" fill="#0077DB"/>
<path d="M83.4737 20.7827C83.3641 20.682 83.2529 20.5791 83.1492 20.4732C81.8115 19.1437 80.9105 17.4387 80.5659 15.585H76.1932C76.5748 18.5929 77.9477 21.3883 80.0953 23.5299C80.4406 23.875 80.8036 24.2017 81.1829 24.5089C82.0837 25.2364 83.0736 25.846 84.1288 26.3228C84.2332 26.3706 84.3393 26.4162 84.4444 26.461C85.5952 26.9479 86.8078 27.2736 88.0477 27.4289V23.0552C86.3429 22.7391 84.7608 21.9519 83.481 20.7827H83.4737Z" fill="#0077DB"/>
<path d="M95.4177 1.38845C95.3133 1.34068 95.2082 1.29512 95.1023 1.25028C93.1557 0.427667 91.0449 0.0667149 88.9354 0.195699C86.8258 0.324683 84.7748 0.940089 82.9431 1.99373C81.1114 3.04737 79.5486 4.51061 78.3773 6.26879C77.206 8.02697 76.458 10.0323 76.1918 12.1278H80.5682C80.8235 10.7809 81.3713 9.50633 82.1729 8.39395C82.9745 7.28158 84.0105 6.35844 85.2078 5.68962C86.4051 5.0208 87.7347 4.62258 89.1027 4.523C90.4707 4.42342 91.8439 4.62491 93.1256 5.11327L95.4177 1.38845Z" fill="#0077DB"/>
<path d="M101.299 13.2102L98.9895 15.518C98.9895 15.5401 98.9823 15.5621 98.9779 15.5842C98.7334 16.899 98.2064 18.1453 97.4335 19.2369C97.1216 19.6778 96.7727 20.0913 96.3907 20.4732C95.0606 21.81 93.355 22.7108 91.5005 23.0559V27.4296C93.8777 27.1256 96.1335 26.204 98.0432 24.7569C99.9529 23.3097 101.45 21.3874 102.384 19.1818C102.57 18.7432 102.732 18.2952 102.872 17.8398C103.096 17.1032 103.258 16.3489 103.354 15.5849C103.366 15.4869 103.377 15.3909 103.386 15.2968L101.299 13.2102Z" fill="#FF683D"/>
<path d="M101.299 5.89658L97.8815 9.30904L96.5967 8.02504L101.298 3.32568L106 8.02504L104.716 9.30904L101.299 5.89658Z" fill="#FF683D"/>
<path d="M101.299 10.9598L97.8815 14.3752L96.5967 13.0912L101.298 8.39185L106 13.0912L104.715 14.3752L101.299 10.9598Z" fill="#FF683D"/>
<path d="M17.953 0.71582V13.5674C17.8939 14.7936 17.7031 16.0098 17.3839 17.1952C16.5396 19.7919 14.4974 23.4424 9.66886 23.6247C9.66886 23.6247 4.3668 23.7945 4.319 17.1989V0.71582H0.00300219V17.5884C0.00300219 17.5884 -0.260297 23.6886 4.14467 26.5263C5.30969 27.253 6.61915 27.7172 7.98192 27.8868C8.48524 27.9694 8.99494 28.007 9.50494 27.9992C9.58779 27.9992 9.67111 27.9992 9.75495 27.9992V27.9919C9.99027 27.9831 10.2337 27.9654 10.4859 27.9375C14.7982 27.4634 17.4721 23.5431 17.9501 22.6347V27.2834H22.266V0.71582H17.953Z" fill="#0077DB"/>
</svg>
