<svg width="142" height="30" viewBox="0 0 142 30" fill="none" xmlns="http://www.w3.org/2000/svg">
<path fill-rule="evenodd" clip-rule="evenodd" d="M19.8 0.699951C18.4 0.699951 17.1 0.999951 16.1 1.39995C15.2 0.999951 13.8 0.699951 12.4 0.699951C6.4 0.699951 1 6.39995 1 14.2C1 22.7 8 29.2999 16.1 29.2999C24.2 29.2999 31.2 22.7 31.2 14.2C31.2 6.39995 25.8 0.699951 19.8 0.699951ZM16.1 5.29995C17.3 5.99995 18.8 7.99995 18.8 10.3C18.8 12 17.7 13.3 16.1 13.3C14.5 13.3 13.4 12 13.4 10.3C13.4 7.99995 15 5.99995 16.1 5.29995ZM16.1 25.6C9.9 25.6 4.7 20.6 4.7 14.1C4.7 8.19995 8.9 4.19995 12.3 4.39995C10.7 5.99995 9.7 8.19995 9.7 10.5C9.7 14.3 12.7 17 16.1 17C19.5 17 22.5 14.3 22.5 10.5C22.5 8.29995 21.5 5.99995 20 4.39995C23.3 4.29995 27.6 8.29995 27.6 14.1C27.5 20.6 22.4 25.6 16.1 25.6Z" fill="#0072BB"/>
<path d="M53 7.19995V10.3C53 10.3 57.4 10.3 57.7 10.3C57.7 10.6 57.7 22 57.7 22H61.1C61.1 22 61.1 10.7 61.1 10.3C61.4 10.3 65.8 10.3 65.8 10.3V7.19995H53Z" fill="#0072BB"/>
<path d="M108.3 7.19995H99.8V10.3H108C109.2 10.3 109.7 10.9 109.7 12.3C109.7 12.3 109.7 12.7 109.7 12.8C109.4 12.8 102.9 12.8 102.9 12.8C100.3 12.8 99 14.1 99 17V17.7C99 20.7 100.3 21.9 103 21.9H113V12.2C113.1 8.59995 111.9 7.19995 108.3 7.19995ZM103.4 18.8C102.9 18.8 102.3 18.5 102.3 17.3C102.3 16.1 102.9 15.8 103.4 15.8C103.4 15.8 109.4 15.8 109.7 15.8V18.8C109.4 18.8 103.4 18.8 103.4 18.8Z" fill="#0072BB"/>
<path d="M136.202 7.19995H127.702V10.3H135.902C137.102 10.3 137.602 10.9 137.602 12.3C137.602 12.3 137.602 12.7 137.602 12.8C137.302 12.8 130.802 12.8 130.802 12.8C128.202 12.8 126.902 14.1 126.902 17V17.7C126.902 20.7 128.202 21.9 130.902 21.9H140.902V12.2C141.002 8.59995 139.802 7.19995 136.202 7.19995ZM131.302 18.8C130.802 18.8 130.202 18.5 130.202 17.3C130.202 16.1 130.802 15.8 131.302 15.8C131.302 15.8 137.302 15.8 137.602 15.8V18.8C137.302 18.8 131.302 18.8 131.302 18.8Z" fill="#0072BB"/>
<path d="M66.9023 7.19995V10.3C66.9023 10.3 71.3023 10.3 71.6023 10.3C71.6023 10.6 71.6023 22 71.6023 22H75.0023C75.0023 22 75.0023 10.7 75.0023 10.3C75.3023 10.3 79.7023 10.3 79.7023 10.3V7.19995H66.9023Z" fill="#0072BB"/>
<path d="M113.801 7.19995V10.3C113.801 10.3 118.201 10.3 118.501 10.3C118.501 10.6 118.501 22 118.501 22H121.901C121.901 22 121.901 10.7 121.901 10.3C122.201 10.3 126.601 10.3 126.601 10.3V7.19995H113.801Z" fill="#0072BB"/>
<path d="M97.8023 16.8V12.4C97.8023 8.49995 96.3023 7.19995 92.9023 7.19995H83.9023V22H93.0023C96.6023 22 97.8023 20.2 97.8023 16.8ZM94.3023 16.9C94.3023 18.3 93.8023 18.9 92.6023 18.9C92.6023 18.9 87.5023 18.9 87.2023 18.9V10.4C87.5023 10.4 92.6023 10.4 92.6023 10.4C93.8023 10.4 94.3023 11 94.3023 12.4C94.3023 12.3 94.3023 16.9 94.3023 16.9Z" fill="#0072BB"/>
<path d="M48.3008 18.4999C48.2008 18.3999 43.7008 9.59985 43.2008 8.79985C42.6008 7.79985 41.8008 7.09985 40.3008 7.09985C38.9008 7.09985 37.3008 7.69985 37.3008 10.9999V21.9999H40.6008C40.6008 21.9999 40.6008 13.3999 40.6008 12.7999C40.6008 12.0999 40.6008 11.1999 40.5008 10.9999C40.5008 10.7999 40.5008 10.6999 40.6008 10.5999C40.7008 10.4999 40.8008 10.5999 40.9008 10.7999C41.0008 10.8999 45.1008 19.1999 46.0008 20.4999C46.6008 21.4999 47.4008 22.1999 48.9008 22.1999C50.3008 22.1999 51.9008 21.5999 51.9008 18.2999V7.19985H48.6008C48.6008 7.19985 48.6008 15.7999 48.6008 16.3999C48.6008 17.0999 48.6008 17.9999 48.7008 18.1999C48.7008 18.3999 48.7008 18.4999 48.6008 18.5999C48.4008 18.6999 48.3008 18.5999 48.3008 18.4999Z" fill="#0072BB"/>
</svg>
