<svg width="200" height="183" viewBox="0 0 200 183" fill="none" xmlns="http://www.w3.org/2000/svg">
<g opacity="0.1">
<path d="M48.8641 138.296C48.1289 137.62 47.3831 136.93 46.6874 136.22C37.7121 127.3 31.6668 115.86 29.3549 103.423H0.0175781C2.57737 123.604 11.7891 142.359 26.1977 156.728C28.5142 159.043 30.9499 161.235 33.495 163.296C39.5383 168.177 46.1797 172.267 53.2596 175.466C53.9602 175.787 54.6716 176.093 55.3772 176.393C63.0983 179.66 71.2334 181.846 79.5529 182.887V153.543C68.1145 151.422 57.5 146.14 48.9135 138.296H48.8641Z" fill="#0077DB"/>
<path d="M128.993 8.17381C128.292 7.85329 127.587 7.54762 126.876 7.24682C113.816 1.72765 99.6537 -0.694083 85.5004 0.171306C71.347 1.0367 57.5863 5.16564 45.2966 12.2348C33.0069 19.304 22.5219 29.1213 14.6632 40.9174C6.80456 52.7136 1.78591 66.1682 0 80.227H29.3626C31.0756 71.1903 34.7506 62.639 40.129 55.1758C45.5074 47.7125 52.4579 41.5189 60.4911 37.0316C68.5243 32.5443 77.4446 29.8726 86.623 29.2044C95.8015 28.5363 105.015 29.8882 113.614 33.1647L128.993 8.17381Z" fill="#0077DB"/>
<path d="M168.456 87.4897L152.958 102.973C152.958 103.121 152.909 103.269 152.88 103.417C151.24 112.239 147.704 120.6 142.518 127.925C140.425 130.883 138.085 133.657 135.522 136.219C126.598 145.188 115.155 151.232 102.712 153.547V182.892C118.661 180.852 133.796 174.669 146.609 164.96C159.421 155.25 169.464 142.353 175.734 127.555C176.979 124.612 178.07 121.607 179.005 118.551C180.512 113.609 181.595 108.548 182.241 103.422C182.32 102.765 182.392 102.121 182.458 101.489L168.456 87.4897Z" fill="#FF683D"/>
<path d="M168.458 38.4208L145.53 61.3159L136.91 52.7012L168.453 21.1719L200 52.7012L191.386 61.3159L168.458 38.4208Z" fill="#FF683D"/>
<path d="M168.458 72.3901L145.53 95.3049L136.91 86.6903L168.453 55.1609L200 86.6903L191.381 95.3049L168.458 72.3901Z" fill="#FF683D"/>
</g>
</svg>
