<svg width="60" height="60" viewBox="0 0 60 60" fill="none" xmlns="http://www.w3.org/2000/svg">
<g clip-path="url(#clip0_1266_33)">
<path fill-rule="evenodd" clip-rule="evenodd" d="M31.1905 47.1429C31.4735 47.1429 32.0692 47.3609 32.4291 47.4519C34.5066 47.977 34.3386 47.9693 35.1222 46.1936L37.5 40.4762L41.2074 41.8879C43.7091 42.8928 46.5279 43.571 48.0619 45.3905C48.7477 46.2038 49.5238 47.71 49.5238 49.1667V58.0952H31.5476C31.4967 57.4833 29.4238 51.8097 28.9929 50.6384C28.731 49.9267 28.9564 49.8634 29.3668 49.3671C29.6016 49.0832 31.0455 47.1429 31.1905 47.1429ZM20 58.0952H1.90475V49.6429C1.90475 46.5941 3.91307 44.3691 6.17512 43.5561C6.99598 43.261 13.1684 40.7677 13.8095 40.7143C13.8933 41.074 14.0335 41.2885 14.1835 41.6498L16.1935 46.4255C16.9168 48.0709 16.9543 48.0997 18.9424 47.5139C19.3743 47.3865 20.0119 47.1815 20.4762 47.1429L22.6075 49.8995C22.8279 50.3348 22.3066 51.3037 22.0087 52.1277L20 58.0952ZM22.5 46.5476C22.7586 46.4236 25.6076 45.645 25.8478 45.6356C26.0871 45.6262 28.8927 46.4161 29.1667 46.5476L28.0282 48.1472C26.2168 50.4792 26.3307 48.6857 28.8555 55.9064C29.0445 56.4467 29.4815 57.5869 29.5238 58.0952H22.1429C22.1877 57.557 22.9147 55.5272 23.1455 54.9312C23.5524 53.8803 23.8482 52.9205 24.2116 51.8306C25.306 48.5485 25.0046 50.2879 22.5 46.5476ZM33.3334 45.7143C31.4853 45.2837 29.7052 44.5972 27.8571 44.1667L33.6905 38.9286C34.3267 39.2338 35.0955 39.4345 35.7143 39.7619C35.5788 40.3432 35.3724 40.6692 35.1529 41.2243C34.8739 41.93 33.3679 45.299 33.3334 45.7143ZM15.5952 39.881C16.1162 39.631 17.5263 38.9032 17.9964 39.2527C18.1681 39.3803 18.2543 39.5109 18.4358 39.6593L23.6905 44.1667C21.7801 44.6118 19.8866 45.2692 17.9762 45.7143L16.2311 41.388C15.994 40.8593 15.8412 40.3458 15.5952 39.881ZM25.7143 43.3333L20.6775 39.0845C20.3128 38.7776 19.2968 37.8364 18.9285 37.7381V35.1191C19.4037 35.2459 19.4418 35.5373 20.2027 36.1068C23.4787 38.5586 27.9495 38.6417 31.2773 36.1583C31.795 35.7719 32.0929 35.4714 32.619 35.1191C32.619 37.9589 33.0237 37.1418 30.869 38.9642L27.8215 41.631C27.5822 41.8335 27.5369 41.8261 27.2919 42.0538L25.7143 43.3333ZM39.2857 17.619L39.9121 14.912C40.1425 13.7221 40.2381 12.8148 40.2381 11.4286H57.619C58.7419 11.4286 58.3333 14.7711 58.3333 15.9524V47.381C58.3333 48.0675 58.4569 49.9773 58.2582 50.5201C58.2483 50.5472 58.2322 50.5762 58.221 50.602C57.9735 51.1719 57.7414 51.5476 57.1428 51.5476H51.5476C51.5476 48.5469 51.7274 46.4805 49.4339 43.8995C48.0447 42.3362 46.7675 41.9296 44.9829 41.2076C44.1064 40.8531 43.2929 40.5527 42.399 40.2201L37.2441 38.2321C36.6517 38.0132 35.0412 37.305 34.5238 37.2619C34.5238 35.7276 34.2582 33.1121 34.8801 31.9039C35.3281 31.0336 36.4569 28.8285 36.5476 27.7381C38.1879 27.6016 39.2768 24.8346 39.7207 23.2921C40.1396 21.8366 41.0106 19.4676 39.734 18.1232C39.6271 18.0106 39.2857 17.736 39.2857 17.619ZM36.9048 18.2143C36.9048 20.4664 39.4729 17.3671 37.6653 22.7843C37.3629 23.6905 37.0942 24.583 36.6204 25.3109C35.7692 26.6187 35.1518 24.8519 34.6652 26.9271C34.4135 28.0007 34.1491 28.6666 33.7758 29.6091C30.7275 37.3053 21.1631 39.1585 17.2097 28.6237C16.6012 27.0024 16.807 26.0754 16.008 25.9093C15.0943 25.7193 15.1587 26.2874 14.2704 23.8248C14.1066 23.3705 13.9713 22.8419 13.8242 22.3663C13.6374 21.7621 13.229 20.6008 13.2674 20.0216C13.3023 19.4948 13.3167 19.5411 13.6664 19.3814C15.0175 18.7645 14.9004 19.0883 14.4932 17.0544C13.8327 13.7552 13.5894 11.2796 14.6858 8.0191C15.5669 5.39876 17.6703 3.84658 20.0841 2.82215C22.3219 1.87245 24.1398 1.90475 26.5476 1.90475C29.7513 1.90475 32.3191 3.62875 33.3624 5.80428C33.839 6.79812 33.7798 6.48077 35.0511 6.73464C38.5613 7.43555 38.3251 12.3223 37.6667 15.1667L36.9048 18.2143ZM11.9048 12.619C11.9048 15.0386 12.4841 17.0243 12.5 17.7381C11.6289 18.199 11.1307 19.1226 11.2192 20.2075C11.364 21.9831 12.7453 27.5405 15.119 27.7381C15.1561 29.3996 17.0848 32.1704 17.1445 32.8555L17.1428 37.2619C16.6982 37.2989 4.9343 41.8842 4.21611 42.3114C2.00476 43.6266 0 46.1825 0 49.0476V59.1667C0 59.7224 0.277577 60 0.833316 60H50.7143C51.27 60 51.5476 59.7224 51.5476 59.1667V53.4524H57.2619C58.6921 53.4524 60 52.349 60 50.9524V12.1428C60 10.6925 58.7394 9.51747 56.909 9.51959L39.7619 9.52382C39.2548 7.34729 37.8579 5.51101 35.7141 5.00016C35.0328 4.8378 35.1119 5.02284 34.7906 4.49513C32.2011 0.242891 29.0161 0 24.1667 0C20.4873 0 15.942 1.87641 13.8892 5.1987C12.5222 7.41113 11.9048 9.66431 11.9048 12.619Z" fill="#0077DB"/>
<path fill-rule="evenodd" clip-rule="evenodd" d="M49.6426 39.0476C49.6426 40.5367 52.024 40.119 54.0473 40.119C55.8649 40.119 55.6538 38.0952 54.2854 38.0952H50.714C50.1368 38.0952 49.6426 38.4893 49.6426 39.0476Z" fill="#0077DB"/>
<path fill-rule="evenodd" clip-rule="evenodd" d="M49.6426 31.7858C49.6426 32.1226 50.0205 32.6191 50.3569 32.6191H54.6426C55.455 32.6191 55.7917 30.7144 54.4045 30.7144H50.5949C49.95 30.7144 49.6426 31.1536 49.6426 31.7858Z" fill="#0077DB"/>
<path fill-rule="evenodd" clip-rule="evenodd" d="M49.6426 16.7858C49.6426 17.2521 50.0855 17.6191 50.5949 17.6191H54.6426C55.455 17.6191 55.7917 15.7144 54.4045 15.7144H50.5949C49.95 15.7144 49.6426 16.1536 49.6426 16.7858Z" fill="#0077DB"/>
<path fill-rule="evenodd" clip-rule="evenodd" d="M49.6426 24.2858C49.6426 24.7521 50.0855 25.1191 50.5949 25.1191H54.6426C55.455 25.1191 55.7917 23.2144 54.4045 23.2144H50.5949C49.95 23.2144 49.6426 23.6536 49.6426 24.2858Z" fill="#0077DB"/>
<path fill-rule="evenodd" clip-rule="evenodd" d="M43.0957 31.6667C43.0957 32.959 44.4661 32.619 46.1909 32.619C47.0033 32.619 47.3401 30.7143 45.9529 30.7143C44.5221 30.7143 43.0957 30.4216 43.0957 31.6667Z" fill="#0077DB"/>
<path fill-rule="evenodd" clip-rule="evenodd" d="M43.0957 24.1667C43.0957 25.4591 44.4661 25.1191 46.1909 25.1191C47.0033 25.1191 47.3401 23.2143 45.9529 23.2143C44.573 23.2143 43.0957 22.9455 43.0957 24.1667Z" fill="#0077DB"/>
<path fill-rule="evenodd" clip-rule="evenodd" d="M43.0957 16.5476C43.0957 17.9456 44.3629 17.619 46.1909 17.619C47.0033 17.619 47.3401 15.7143 45.9529 15.7143C45.1074 15.7143 43.8161 15.5684 43.4346 15.9341C43.3676 15.9983 43.0957 16.4812 43.0957 16.5476Z" fill="#0077DB"/>
</g>
<defs>
<clipPath id="clip0_1266_33">
<rect width="60" height="60" fill="white"/>
</clipPath>
</defs>
</svg>
