<svg width="60" height="60" viewBox="0 0 60 60" fill="none" xmlns="http://www.w3.org/2000/svg">
<g clip-path="url(#clip0_1266_54)">
<path fill-rule="evenodd" clip-rule="evenodd" d="M31.0475 54.2577C31.3915 52.7707 32.2098 51.6004 33.4883 50.9733C33.8528 50.7945 34.4697 50.5077 35.0043 50.5077H49.6681C49.6681 54.7472 50.0842 54.2607 47.8061 54.2577L31.0475 54.2577ZM8.58621 21.5625V21.9141C6.17764 21.9141 3 21.3411 3 23.789V54.9608C3 57.4649 5.51528 59.9998 8.00432 59.9998H51.8793C52.7222 59.9998 53.2802 59.7911 53.8574 59.5307C54.1536 59.3972 54.4241 59.2413 54.6735 59.0634C55.9421 58.1586 57 56.6227 57 54.9608V23.789C57 21.3531 53.8658 21.9141 51.5302 21.9141C51.5302 20.6844 50.903 19.6875 49.9008 19.6875H42.6853C41.347 19.6875 41.6635 21.4453 42.4526 21.4453H49.6681V32.1093C49.6681 33.5028 51.5301 33.5028 51.5301 32.1093V23.6718H54.9051C55.1733 23.6718 55.2543 23.7534 55.2543 24.0234V53.7889C55.2543 56.4421 53.994 58.242 51.2974 58.242H8.7026C7.49182 58.242 6.26598 57.7209 5.72149 57.0251C5.02325 56.1327 4.74571 55.3324 4.74571 53.7889V24.0234C4.74571 23.7534 4.82664 23.6718 5.09483 23.6718H8.58621V53.5545C8.58621 55.022 9.66344 56.0154 10.5647 56.0154H49.5517C50.4529 56.0154 51.5302 55.022 51.5302 53.5545V36.0937C51.5302 34.7304 49.6682 34.7304 49.6682 36.0937V48.6327H35.3535C34.4053 48.6327 33.5124 48.9354 32.8297 49.2555C31.7011 49.7848 31.4204 50.2949 30.931 50.6248V40.8983C30.9311 39.521 31.2492 38.4374 30 38.4374C28.8996 38.4374 29.1852 39.668 29.1853 40.7811L29.1854 50.6249C28.3335 50.0505 27.2698 48.6327 24.7629 48.6327H20.5733C20.0752 48.6327 19.6422 48.9939 19.6422 49.453C19.6422 51.3755 23.4994 50.0321 25.6254 50.5767C27.4462 51.0431 28.6407 52.4069 29.0689 54.2577H12.4267C10.0156 54.2592 10.4482 54.7787 10.4482 50.5077H16.2672C18.4219 50.5077 17.8979 48.6327 16.8491 48.6327H10.4482V21.4453H17.6637C18.4567 21.4453 18.7686 19.6875 17.431 19.6875H10.2155C9.3583 19.6875 8.58613 20.6463 8.58613 21.5625H8.58621Z" fill="#0077DB"/>
<path fill-rule="evenodd" clip-rule="evenodd" d="M28.3706 32.9295V31.4061H31.7456C31.7456 33.6785 31.9499 33.7498 29.418 33.7498C28.938 33.7498 28.3706 33.356 28.3706 32.9296V32.9295ZM29.3319 0H30.9484C32.4982 0.101571 34.0269 0.497523 35.4311 1.21073C42.0185 4.55632 44.4306 11.9098 41.0965 18.5564L37.844 23.7188C37.5887 24.1023 37.433 24.3447 37.2099 24.7209C36.9964 25.081 36.7488 25.4267 36.5159 25.7799L35.1963 27.8495C34.5615 28.8842 35.216 30.7393 33.6077 31.1717C33.6077 32.7281 33.7226 33.4918 32.9976 34.4246C31.7695 36.0046 29.1356 35.8012 28.1307 35.2804C26.433 34.4007 26.5085 32.9065 26.5085 31.1717C25.6783 30.9485 25.2419 29.951 25.2286 29.0621C25.2113 27.9033 24.9343 27.9495 24.23 26.7864C23.7707 26.0277 23.3842 25.4454 22.9235 24.7036L20.3168 20.6487C19.4084 19.2861 18.5102 17.8393 18.0604 16.2411C17.8276 15.4142 17.5769 14.2968 18.8275 14.2968C19.6602 14.2968 19.7128 15.4981 19.9582 16.2051C20.4882 17.7322 20.8669 18.0413 21.4988 19.107L25.4623 25.3112C25.6674 25.6222 25.8368 25.9402 26.0418 26.2512C27.1468 27.9268 27.0905 27.5064 27.0905 29.5311L26.925 22.4322C26.8033 21.6225 26.9109 20.8893 26.7413 20.1562C25.4218 20.1562 25.1721 20.2294 24.3154 19.6693C23.7811 19.3199 23.2499 18.6669 23.2499 17.8125C23.2499 16.7053 23.1706 16.3945 24.1473 15.4349C25.28 14.3223 28.487 14.2298 28.487 18.2812H31.5129C31.5129 16.4767 32.1551 14.7656 34.1896 14.7656C36.7279 14.7656 37.7014 18.3506 35.6845 19.6693C34.8277 20.2294 34.5781 20.1562 33.2586 20.1562L32.6767 29.6483C33.1959 29.3717 32.951 29.7418 33.0308 29.1847C33.0505 29.0467 33.0205 28.6393 33.0214 28.472C33.0263 27.4967 33.8443 26.7033 34.5332 25.5413L39.0789 18.3998C41.2932 15.0766 41.3031 10.5632 39.2617 7.08018C38.4147 5.63506 37.0752 4.16737 35.6231 3.36126C35.2897 3.1762 35.0514 3.00992 34.723 2.86132C28.9098 0.23093 22.7169 2.5976 20.1094 8.55642C19.8456 9.15913 19.6351 9.98212 19.4936 10.7489C19.4307 11.0899 19.4422 11.6013 19.2552 11.915C19.1287 12.1272 18.7701 12.4219 18.4784 12.4219C18.1172 12.4219 17.6759 12.0079 17.5884 11.6697C17.527 11.4322 17.6568 10.6955 17.7118 10.361C18.2267 7.22916 20.0179 4.41138 22.5 2.52623C24.4711 1.02917 26.8834 0.157981 29.3319 8.33232e-05L29.3319 0ZM28.6033 20.1562H31.3964C31.3964 21.3758 31.1814 22.8832 31.16 23.6681L30.9345 28.4802C30.9184 29.0717 30.8145 29.065 30.8145 29.6483H29.1852L28.6032 20.1562H28.6033ZM34.7714 18.164C34.0198 18.3403 34.2758 18.2811 33.3748 18.2811C33.3748 17.2599 33.2258 16.6405 34.3059 16.6405C34.5379 16.6405 35.3635 17.0626 34.7714 18.164V18.164ZM24.9955 17.4609C24.9955 16.4872 26.6248 16.228 26.6248 17.4609V18.2811C25.7239 18.2811 25.9799 18.3403 25.2283 18.164C25.1716 18.0451 24.9955 17.6156 24.9955 17.4609Z" fill="#0077DB"/>
<path fill-rule="evenodd" clip-rule="evenodd" d="M35.1211 39.1404C35.1211 39.6178 35.2125 40.1951 36.0521 40.1951H45.7116C46.7603 40.1951 47.2928 38.3201 45.1297 38.3201C43.7281 38.3201 36.3568 38.1669 35.6318 38.4828C35.3839 38.5907 35.1211 38.8506 35.1211 39.1404Z" fill="#0077DB"/>
<path fill-rule="evenodd" clip-rule="evenodd" d="M35.1211 43.5935C35.1211 44.2919 35.5908 44.531 36.2849 44.531H45.5952C46.9078 44.531 46.9385 42.656 45.5952 42.656H36.0521C35.4892 42.656 35.1211 43.0266 35.1211 43.5935L35.1211 43.5935Z" fill="#0077DB"/>
<path fill-rule="evenodd" clip-rule="evenodd" d="M13.4746 43.5935C13.4746 44.0564 14.0031 44.531 14.522 44.531H23.8324C25.5238 44.531 25.2253 42.656 24.0651 42.656H14.522C14.0031 42.656 13.4746 43.1306 13.4746 43.5935V43.5935Z" fill="#0077DB"/>
<path fill-rule="evenodd" clip-rule="evenodd" d="M14.9869 35.9763H23.7154C25.5526 35.9763 25.2265 34.1013 24.0645 34.1013H14.405C13.792 34.1013 13.3998 34.6534 13.5313 35.2044C13.6846 35.847 14.2552 35.9763 14.987 35.9763H14.9869Z" fill="#0077DB"/>
<path fill-rule="evenodd" clip-rule="evenodd" d="M35.1211 35.0388C35.1211 35.7505 35.7085 35.9763 36.4013 35.9763H45.1297C47.2844 35.9763 46.7605 34.1013 45.7117 34.1013H36.0522C35.4892 34.1013 35.1211 34.4719 35.1211 35.0388L35.1211 35.0388Z" fill="#0077DB"/>
<path fill-rule="evenodd" clip-rule="evenodd" d="M14.4056 40.195H24.0651C25.1524 40.195 25.7084 38.3201 23.4832 38.3201H14.9875C12.8328 38.3201 13.3568 40.195 14.4056 40.195H14.4056Z" fill="#0077DB"/>
<path fill-rule="evenodd" clip-rule="evenodd" d="M11.9609 30.3513C11.9609 30.8053 12.1147 31.406 12.6592 31.406H21.6204C22.548 31.406 22.548 29.6482 21.6204 29.6482H12.6592C12.3789 29.6482 11.9609 30.0691 11.9609 30.3513Z" fill="#0077DB"/>
<path fill-rule="evenodd" clip-rule="evenodd" d="M37.7979 30.3513C37.7979 30.8053 37.9516 31.406 38.4961 31.406H47.4573C48.3849 31.406 48.3849 29.6482 47.4573 29.6482H38.4961C38.2159 29.6482 37.7979 30.0691 37.7979 30.3513Z" fill="#0077DB"/>
<path fill-rule="evenodd" clip-rule="evenodd" d="M44.4307 11.3672C44.4307 12.0006 46.9389 13.9453 47.2238 13.9453C48.1387 13.9453 48.5506 12.838 47.7109 12.1657C47.3559 11.8814 47.2914 11.8223 46.9629 11.5127C46.6007 11.1714 45.8502 10.4297 45.3617 10.4297C44.8103 10.4297 44.4307 10.9059 44.4307 11.3672L44.4307 11.3672Z" fill="#0077DB"/>
<path fill-rule="evenodd" clip-rule="evenodd" d="M11.961 13.0078C11.961 13.4854 12.4307 14.5273 13.6289 13.5154C14.1916 13.0401 15.6851 11.8967 15.6851 11.3672C15.6851 10.8005 14.9229 9.85299 13.9083 10.8672L12.4723 12.1165C12.1719 12.3453 11.9609 12.5282 11.9609 13.0079L11.961 13.0078Z" fill="#0077DB"/>
<path fill-rule="evenodd" clip-rule="evenodd" d="M11.9609 4.10164C11.9609 4.77126 13.149 5.63212 13.8371 6.1968C15.3135 7.40823 15.797 6.05294 15.5983 5.48959C15.4618 5.10222 13.5046 3.41872 13.2233 3.2864C12.6559 3.01948 11.9609 3.39281 11.9609 4.10164Z" fill="#0077DB"/>
<path fill-rule="evenodd" clip-rule="evenodd" d="M45.3618 6.67972C45.8297 6.67972 45.9386 6.48337 46.2151 6.24982C46.5466 5.96985 46.6479 5.90107 46.9607 5.59436C47.3873 5.1762 48.1549 4.84553 48.1549 4.10162C48.1549 3.40012 47.4925 3.06346 46.9745 3.25052C46.7102 3.34596 44.6727 5.14091 44.5523 5.407C44.2722 6.02593 44.6461 6.67972 45.3618 6.67972Z" fill="#0077DB"/>
</g>
<defs>
<clipPath id="clip0_1266_54">
<rect width="60" height="59.9997" fill="white"/>
</clipPath>
</defs>
</svg>
