<svg width="60" height="60" viewBox="0 0 60 60" fill="none" xmlns="http://www.w3.org/2000/svg">
<g clip-path="url(#clip0_1266_71)">
<path fill-rule="evenodd" clip-rule="evenodd" d="M1.75777 56.4844V53.3204C1.75777 53.0503 1.83931 52.9688 2.10934 52.9688H21.4452C21.4452 53.9469 21.3607 54.6385 22.0074 55.4535C22.2607 55.7727 22.9168 56.25 23.4375 56.25H36.3281C38.4049 56.25 38.5547 54.2921 38.5547 52.9688H57.8906C58.1606 52.9688 58.2422 53.0503 58.2422 53.3204C58.2422 55.6603 58.7455 58.2422 56.4844 58.2422H3.51559C2.4724 58.2422 1.75777 57.5276 1.75777 56.4844ZM13.3593 0H16.1559C16.6861 0.0944132 16.9921 0.343486 16.9921 0.937528C16.9921 2.40412 14.283 1.38031 13.0077 1.9922C12.9465 2.25505 12.8905 2.26161 12.8905 2.57816V24.2579C12.8905 24.5396 13.0804 24.6024 13.2421 24.8438C16.7187 24.8438 20.1952 24.8438 23.6718 24.8438C25.8843 24.8438 27.4009 24.4899 28.1233 25.6658L30.1171 29.0626C30.2178 28.6305 30.394 28.4383 30.5806 28.1197C30.7468 27.8358 30.8421 27.5803 31.0171 27.2672C32.0774 25.3699 31.9686 24.8284 33.747 24.8409L46.7577 24.8438C46.9194 24.6023 47.1093 24.5396 47.1093 24.2578V2.57811C47.1093 2.26161 47.0533 2.25501 46.9921 1.99215C46.1652 1.59545 44.55 1.75782 43.3593 1.75782H31.9921C28.9933 1.75782 23.4082 1.8785 20.6182 1.76452C19.1726 1.70542 19.3497 0 20.5077 0H46.6405C47.9142 0 48.9843 1.25001 48.9843 2.69535V17.6953H53.4374C54.9707 17.6953 56.3671 19.2502 56.3671 21.211V43.8282C56.3671 44.2564 56.0437 44.7656 55.664 44.7656C54.2856 44.7656 54.4922 44.2317 54.4922 41.9532V24.7266C54.4922 21.8215 55.0373 19.4531 52.8515 19.4531H48.9843V21.211C51.1209 21.211 52.8515 20.7883 52.8515 22.6172V48.0469C52.8515 48.8034 52.4128 49.4532 51.6797 49.4532H8.32028C7.58708 49.4532 7.14841 48.8034 7.14841 48.0469V22.6172C7.14841 20.7883 8.87905 21.211 11.0156 21.211V19.4531H7.14841C6.16677 19.4531 5.50779 19.9829 5.50779 20.9766V49.6875C5.50779 50.6811 6.16677 51.2109 7.14841 51.2109H52.8516C53.9673 51.2109 54.4938 50.6119 54.4978 49.4587C54.4995 48.9709 54.4079 48.3089 54.5374 47.8577C54.6352 47.5169 55.0578 47.1094 55.4297 47.1094C56.6793 47.1094 56.4476 49.607 56.266 50.4066C56.1624 50.8633 56.1057 50.8244 56.0157 51.2109C56.858 51.2109 58.187 51.0752 58.8155 51.3407C59.4064 51.5904 60 52.2144 60 53.0859V56.8359C60 58.5361 58.5362 60 56.836 60H3.16406C1.46386 60 0 58.5361 0 56.8359V53.0859C0 50.7431 2.84288 51.2109 3.9844 51.2109C3.89434 50.8244 3.83768 50.8632 3.73404 50.4066C3.48669 49.317 3.63283 24.5253 3.63283 21.2109C3.63283 20.145 3.94765 19.3455 4.47991 18.7767C4.94983 18.2746 5.64393 17.6953 6.56251 17.6953H11.0157V2.6953C11.0157 1.56612 11.5587 0.727838 12.4244 0.236823C12.6716 0.0966144 12.9675 0 13.3594 0L13.3593 0ZM23.3203 54.0234V52.9687H36.6797C36.6797 54.0201 36.8544 54.4922 35.9766 54.4922H24.0235C23.6636 54.4922 23.3204 54.3837 23.3204 54.0234L23.3203 54.0234ZM9.02338 22.9687H11.0156C11.0156 24.5119 11.0337 25.9837 12.9109 26.5812C13.8757 26.8883 25.0559 26.7187 26.6015 26.7187L28.7088 30.588C29.4076 31.9061 30.6403 31.7991 31.2517 30.6659C31.5194 30.1698 31.6912 29.8905 31.9515 29.3736C32.2012 28.8776 32.399 28.6087 32.6559 28.0858C32.9154 27.5573 33.1397 27.2077 33.3983 26.7188C34.8469 26.7188 46.1348 26.8546 46.999 26.6086C48.9582 26.0509 48.9842 24.5165 48.9842 22.9688H50.9764V47.6953H9.02328V22.9688L9.02338 22.9687Z" fill="#0077DB"/>
<path fill-rule="evenodd" clip-rule="evenodd" d="M13.7109 30.7031H18.5156V43.0078H13.7109V30.7031ZM11.8359 31.0547V42.539C11.8359 45.5157 14.783 44.8828 18.0469 44.8828C19.2599 44.8828 20.2735 44.2551 20.2735 43.0078V30.4688C20.2735 29.7369 19.3646 28.8281 18.6329 28.8281H13.711C12.4741 28.8281 11.836 29.8303 11.836 31.0547H11.8359Z" fill="#0077DB"/>
<path fill-rule="evenodd" clip-rule="evenodd" d="M34.4531 16.8752H43.5937V19.922H34.4531V16.8752ZM32.6953 16.172V20.6252C32.6953 21.2044 33.1708 21.6799 33.75 21.6799H44.5313C44.8887 21.6799 45.4688 21.1409 45.4688 20.508V16.2893C45.4688 15.7001 44.8861 15.1174 44.2969 15.1174H33.75C33.1708 15.1174 32.6954 15.5929 32.6954 16.1721L32.6953 16.172Z" fill="#0077DB"/>
<path fill-rule="evenodd" clip-rule="evenodd" d="M20.1562 10.3126L21.914 15.1173H18.2812C18.6216 14.4079 18.8737 13.533 19.1838 12.7386C19.3573 12.2942 19.4776 12.0248 19.6437 11.5579L20.1562 10.3126ZM15.1172 18.5157C15.1172 19.3278 16.6673 20.7847 17.5781 16.8752H22.6171C22.7173 17.3051 23.3373 19.4533 24.0234 19.4533C25.9749 19.4533 24.6447 17.1449 24.0733 15.6534L21.2816 8.24982C20.7362 6.91301 19.4619 6.92258 18.963 8.18191C18.7922 8.61302 18.5788 9.19017 18.4161 9.62721L16.1896 15.4866C15.994 16.012 15.1172 18.1068 15.1172 18.5157Z" fill="#0077DB"/>
<path fill-rule="evenodd" clip-rule="evenodd" d="M24.2578 44.6484C25.8349 44.6484 35.5174 44.8168 36.2827 44.4857C37.1632 44.1048 36.8768 42.7734 35.8594 42.7734H23.6719C23.0187 42.7734 22.6869 43.3591 22.7988 43.8833C22.9342 44.5183 23.5382 44.6484 24.2578 44.6484V44.6484Z" fill="#0077DB"/>
<path fill-rule="evenodd" clip-rule="evenodd" d="M23.6721 41.6017H35.8597C36.877 41.6017 37.1634 40.2702 36.2829 39.8894C35.5176 39.5582 25.8351 39.7267 24.2581 39.7267C23.5551 39.7267 23.0032 39.844 22.8225 40.4079C22.6604 40.9139 22.9693 41.6017 23.6722 41.6017H23.6721Z" fill="#0077DB"/>
<path fill-rule="evenodd" clip-rule="evenodd" d="M24.0236 38.6719H35.7424C37.1538 38.6719 37.1192 36.7969 35.8596 36.7969H23.7893C22.5645 36.7969 22.251 38.6719 24.0236 38.6719Z" fill="#0077DB"/>
<path fill-rule="evenodd" clip-rule="evenodd" d="M26.6016 8.32021V18.3984C26.6016 19.6949 28.4766 19.8609 28.4766 18.3984V8.20307C28.4766 6.94339 26.6016 6.90884 26.6016 8.32026V8.32021Z" fill="#0077DB"/>
<path fill-rule="evenodd" clip-rule="evenodd" d="M33.75 9.02342C33.75 9.59028 34.1207 9.96095 34.6875 9.96095H43.4766C44.7363 9.96095 44.7708 8.08594 43.3594 8.08594H34.8047C34.238 8.08594 33.75 8.41875 33.75 9.02342Z" fill="#0077DB"/>
<path fill-rule="evenodd" clip-rule="evenodd" d="M33.75 11.9531C33.75 12.3814 34.0734 12.8906 34.4531 12.8906H43.711C44.6154 12.8906 44.5988 11.1328 43.711 11.1328H34.4531C34.122 11.1328 33.75 11.6215 33.75 11.9531Z" fill="#0077DB"/>
<path fill-rule="evenodd" clip-rule="evenodd" d="M43.0078 38.6719C42.4273 38.2832 41.3893 36.7969 40.664 36.7969C40.2556 36.7969 39.7266 37.3259 39.7266 37.7344C39.7266 38.1428 42.301 40.8985 43.0078 40.8985C43.602 40.8985 44.6177 39.5816 45.1464 39.0528C45.9107 38.2885 46.9922 37.5793 46.9922 36.7969C46.9922 36.1936 46.5237 35.9014 46.0733 35.9265C45.3663 35.9661 43.1679 38.4328 43.0078 38.6719V38.6719Z" fill="#0077DB"/>
<path fill-rule="evenodd" clip-rule="evenodd" d="M23.6716 35.2734H30.5857C31.3841 35.2734 31.6982 33.5156 30.3514 33.5156H23.6717C22.5456 33.5156 22.4197 35.2734 23.6717 35.2734H23.6716Z" fill="#0077DB"/>
<path fill-rule="evenodd" clip-rule="evenodd" d="M33.75 5.74222C33.75 6.46283 34.5072 6.6797 35.2735 6.6797C36.1444 6.6797 39.3183 6.801 39.9056 6.50714C40.7867 6.06623 40.4863 4.80469 39.4922 4.80469H34.6875C34.1207 4.80469 33.75 5.17535 33.75 5.74222H33.75Z" fill="#0077DB"/>
<path fill-rule="evenodd" clip-rule="evenodd" d="M4.92188 55.7814C4.92188 56.9604 7.85156 57.1701 7.85156 55.7814C7.85156 54.6359 6.65199 54.8439 5.8594 54.8439C5.30412 54.8439 4.92188 55.3201 4.92188 55.7814Z" fill="#0077DB"/>
<path fill-rule="evenodd" clip-rule="evenodd" d="M9.60938 55.7814C9.60938 56.9604 12.5391 57.1701 12.5391 55.7814C12.5391 54.6359 11.3395 54.8439 10.5469 54.8439C9.99162 54.8439 9.60938 55.3201 9.60938 55.7814Z" fill="#0077DB"/>
</g>
<defs>
<clipPath id="clip0_1266_71">
<rect width="60" height="60" fill="white"/>
</clipPath>
</defs>
</svg>
