<svg width="60" height="60" viewBox="0 0 60 60" fill="none" xmlns="http://www.w3.org/2000/svg">
<g clip-path="url(#clip0_1266_44)">
<path fill-rule="evenodd" clip-rule="evenodd" d="M57.557 57.3415H2.55651C2.27433 57.3415 2.07414 57.1425 2.07414 56.8619V53.744C2.07414 53.463 2.27429 53.2641 2.55651 53.2641H57.557C58.2763 53.2641 58.0394 55.4211 58.0394 56.382C58.0394 56.8092 57.9807 57.3415 57.557 57.3415ZM5.21018 17.5282C5.21018 15.6437 6.29158 15.2327 7.2605 14.7704C7.2605 19.2472 7.2605 23.724 7.2605 28.2011C7.2605 30.5319 7.01474 32.7525 7.95684 34.2243C8.85044 35.6201 10.189 36.5954 12.4469 36.5954H33.3133C34.7219 36.5954 34.5217 35.0614 34.5196 34.3171C34.515 32.4856 34.4117 20.4053 34.579 19.9858C34.5815 19.9788 39.6717 14.6504 40.0677 14.6504H51.6467C53.5754 14.6504 54.9033 15.6345 54.9033 17.5282V51.3454H5.21018V17.5282V17.5282ZM13.412 31.7987C13.412 32.3612 13.9127 32.7582 14.4973 32.7582H32.4689V34.5569H11.7234C11.2089 34.5569 10.27 33.9314 10.0108 33.6213C9.04392 32.4639 8.93392 30.7171 10.4433 29.5664C11.4211 28.821 11.5876 29.1603 12.8087 29.1603H32.4689V30.8395H14.1356C13.7335 30.8395 13.412 31.426 13.412 31.7987L13.412 31.7987ZM28.2476 21.7255C28.4516 21.3419 28.6185 20.882 28.7299 20.4063L29.6023 21.2178C29.2247 21.4126 28.6581 21.6303 28.2476 21.7255V21.7255ZM25.5939 23.4044C25.5939 23.8457 25.956 24.3639 26.6796 24.3639C27.267 24.3639 29.1232 23.5728 29.7463 23.3355C30.3022 23.1239 30.7074 22.9642 31.2489 22.7909C32.2295 22.4769 31.9215 22.4101 32.5899 21.9654V27.0019H11.844C10.7421 27.0019 10.0306 27.4629 9.31099 27.8415L9.33644 4.24267C9.47859 3.36544 10.2831 2.5385 11.1202 2.5385H30.4186C31.5818 2.5385 32.3484 3.60523 32.3484 4.33724V12.9713C32.3484 13.351 28.671 16.8096 28.1571 17.3184C26.9343 18.53 27.6599 17.8714 26.749 20.2356C26.5867 20.6561 25.594 23.1991 25.594 23.4045L25.5939 23.4044ZM31.263 20.1666L29.7888 18.634C30.5621 17.4994 32.1531 16.1036 33.1628 15.1002C34.0822 14.1857 43.143 5.0587 43.6862 4.69691C43.8315 4.79361 45.3019 6.1476 45.3748 6.2559C45.0339 6.76256 31.8349 19.7859 31.2631 20.1666L31.263 20.1666ZM45.1046 3.28699L45.8295 2.51069C46.6676 2.7262 47.1977 3.44311 47.5461 4.09741L46.7978 4.91345L45.1046 3.28695V3.28699ZM7.26058 4.69687V12.8514C5.33043 12.8514 3.28046 15.0133 3.28046 17.0487V51.3455C2.35604 51.3455 1.44299 51.3729 0.72614 52.1636C-0.200368 53.1853 0.0238511 55.1134 0.0238511 56.6218C0.0238511 58.6582 1.42811 59.4999 3.40103 59.4999H56.7126C60.5438 59.4999 59.9692 57.0289 59.9692 54.1037C59.9692 51.9798 58.5461 51.3455 56.7126 51.3455V17.0487C56.7126 14.5602 54.5172 12.7153 51.5269 12.7308C48.312 12.7477 45.0926 12.7315 41.877 12.7315L47.9983 6.58568C48.5917 5.99571 49.5964 5.18988 49.5964 4.09749C49.5964 2.74805 47.4789 0.5 46.0986 0.5C44.624 0.5 43.6176 1.94751 42.812 2.7484L37.1429 8.38443C36.4501 9.07317 34.957 10.7207 34.2785 11.1726C34.2785 9.7254 34.4592 4.56048 34.2073 3.56832C33.6359 1.31709 31.7485 0.5 29.4538 0.5H12.0852C9.38339 0.5 7.26054 1.84658 7.26054 4.69695L7.26058 4.69687Z" fill="#0077DB"/>
<path fill-rule="evenodd" clip-rule="evenodd" d="M38.0176 23.6442H50.8029V34.557H38.0176V23.6442ZM36.0879 22.6848V35.5161C36.0879 36.169 36.5165 36.5955 37.1732 36.5955H51.5264C52.2457 36.5955 52.7327 36.3508 52.7327 35.636V22.445C52.7327 22.1563 52.2995 21.7256 52.0092 21.7256H36.8114C36.4207 21.7256 36.0879 22.2466 36.0879 22.6848Z" fill="#0077DB"/>
<path fill-rule="evenodd" clip-rule="evenodd" d="M16.7889 11.2925C17.4502 11.4458 18.1773 11.7928 18.8252 12.0263C21.2249 12.8908 20.5534 13.0125 22.8888 12.0807C23.3584 11.8934 24.2983 11.45 24.7496 11.4124V14.0507C23.56 14.1492 22.3551 14.4104 20.7691 14.4104C19.1831 14.4104 17.9786 14.1492 16.7889 14.0507V11.2925ZM15.5827 8.5346C16.4243 8.33945 20.5275 6.55479 20.89 6.55408L26.197 8.65448C25.1743 8.89114 21.2292 10.6263 20.8879 10.6368C20.7846 10.6403 16.1227 9.00117 15.5827 8.5346ZM11.8438 8.65448C11.8438 9.45047 12.4725 9.58164 13.0832 9.82038C13.6356 10.0369 14.31 10.3259 14.8591 10.4532C14.8591 11.4124 14.8591 12.3718 14.8591 13.3313C14.8588 16.5779 14.6413 15.654 20.6856 16.3005C20.8447 16.3174 23.0376 16.2077 23.3725 16.1595C27.3467 15.5886 26.6793 16.7326 26.6793 10.5731C26.9202 10.4581 27.7378 10.1554 28.0062 10.0935V13.691C28.3379 13.9118 28.5755 14.2504 29.1424 14.1101C29.6029 13.9961 29.9359 13.6055 29.9359 13.0915V8.77432C29.9359 8.2708 29.7001 7.96989 29.3394 7.80852L25.6796 6.4102C24.834 6.07371 24.1031 5.80689 23.2505 5.46793C20.1106 4.21911 21.5513 4.22013 16.0824 6.39298C14.804 6.90104 11.8438 7.70758 11.8438 8.6544V8.65448Z" fill="#0077DB"/>
<path fill-rule="evenodd" clip-rule="evenodd" d="M36.449 45.4697C34.8 45.4697 34.4669 42.8314 36.5696 42.8314C38.1118 42.8314 38.208 45.4697 36.449 45.4697ZM33.1924 43.3109H23.0609C21.6106 43.3109 20.4072 42.9646 20.4072 44.2704C20.4072 45.4687 21.646 45.2299 22.8197 45.2296H33.313C33.7483 47.0874 36.2467 48.3887 38.5047 46.7942C39.0415 46.4148 39.27 45.8214 39.585 45.2296L48.9931 45.2299C50.3524 45.2314 51.2846 45.3987 51.2846 44.1505C51.2846 43.036 50.1095 43.3106 48.9931 43.3109H39.585C39.2013 41.6736 36.8362 39.91 34.3944 41.6282C33.7604 42.0744 33.5595 42.6211 33.1924 43.3109Z" fill="#0077DB"/>
<path fill-rule="evenodd" clip-rule="evenodd" d="M11.6026 46.0689V42.3516L13.963 43.6022C14.3234 43.8174 14.416 43.9278 14.8591 44.0304C14.5861 44.4355 12.174 45.7683 11.6026 46.0689ZM9.5518 41.1523V47.1483C9.5518 50.3977 12.4307 47.7794 14.497 46.6684C15.1138 46.3369 15.7128 45.9814 16.3285 45.6112C16.6796 45.3998 17.8746 44.8834 17.8746 44.2702C17.8746 43.2773 17.0633 43.1036 16.4201 42.7179C15.7785 42.3336 15.1579 41.9982 14.503 41.6258C14.0263 41.3544 10.9504 39.4734 10.6374 39.4734C9.76785 39.4734 9.55176 40.2873 9.55176 41.1523H9.5518Z" fill="#0077DB"/>
<path fill-rule="evenodd" clip-rule="evenodd" d="M42.4804 30.5993V27.6016C43.0215 27.8861 44.5474 28.8129 45.0131 28.9204C44.8685 29.4598 42.5639 30.5771 42.4804 30.5993ZM40.4297 26.4023V31.6787C40.4297 34.5389 42.549 32.9057 44.0265 32.0166L47.2254 30.1605C47.885 29.778 48.0285 29.624 48.0285 29.0403C48.0285 28.2169 47.2781 28.0326 46.7237 27.6993L43.3772 25.7505C42.3679 25.1425 40.4297 23.7436 40.4297 26.4023V26.4023Z" fill="#0077DB"/>
<path fill-rule="evenodd" clip-rule="evenodd" d="M26.5586 55.4228C26.5586 56.003 26.9402 56.382 27.5233 56.382H32.5894C33.9913 56.382 33.8795 54.4634 32.9512 54.4634H27.2821C26.8914 54.4634 26.5586 54.9844 26.5586 55.4229V55.4228Z" fill="#0077DB"/>
</g>
<defs>
<clipPath id="clip0_1266_44">
<rect width="60" height="60" fill="white"/>
</clipPath>
</defs>
</svg>
